<svg width="58" height="58" viewBox="0 0 58 58" fill="none" xmlns="http://www.w3.org/2000/svg">
<g filter="url(#filter0_d)">
<path d="M5.00006 25C5.00006 11.8023 15.8023 1 29.0001 1C42.1978 1 53.0001 11.8023 53.0001 25C53.0001 38.1977 42.1978 49 29.0001 49C15.8023 49 5.00006 38.1977 5.00006 25ZM27.4037 29.2302L37.3601 35.3573C38.7229 36.1959 40.5075 35.771 41.3461 34.4082C42.1914 33.0346 41.7523 31.2351 40.3692 30.4053L32.2211 25.5164C31.6187 25.155 31.2501 24.504 31.2501 23.8014V14.375C31.2501 12.7872 29.9629 11.5 28.3751 11.5C26.7872 11.5 25.5001 12.7872 25.5001 14.375V25.8236C25.5001 27.2127 26.2207 28.5023 27.4037 29.2302Z" stroke="#D1DCE5" stroke-width="2" shape-rendering="crispEdges"/>
</g>
<defs>
<filter id="filter0_d" x="6.10352e-05" y="0" width="58" height="58" filterUnits="userSpaceOnUse" color-interpolation-filters="sRGB">
<feFlood flood-opacity="0" result="BackgroundImageFix"/>
<feColorMatrix in="SourceAlpha" type="matrix" values="0 0 0 0 0 0 0 0 0 0 0 0 0 0 0 0 0 0 127 0" result="hardAlpha"/>
<feOffset dy="4"/>
<feGaussianBlur stdDeviation="2"/>
<feComposite in2="hardAlpha" operator="out"/>
<feColorMatrix type="matrix" values="0 0 0 0 0 0 0 0 0 0 0 0 0 0 0 0 0 0 0.25 0"/>
<feBlend mode="normal" in2="BackgroundImageFix" result="effect1_dropShadow"/>
<feBlend mode="normal" in="SourceGraphic" in2="effect1_dropShadow" result="shape"/>
</filter>
</defs>
</svg>
